<svg width="375" height="800" viewBox="0 0 375 800" fill="none" xmlns="http://www.w3.org/2000/svg">
<g clip-path="url(#clip0_10385_26446)">
<path d="M17.3223 263.31L17.3813 263.27L17.3223 263.23V263.31Z" fill="#4C3E84"/>
<g opacity="0.1">
<path d="M0.822266 73.1375L59.166 109.241V37.0005L0.822266 73.1375Z" fill="#009DA8"/>
<path opacity="0.2" d="M0.822266 145.784L59.166 182.362V109.241L0.822266 145.784Z" fill="#655694"/>
<path d="M117.51 0.137252V72.9837L117.702 73.121L176.675 36.6806V36.4404L117.702 0L117.51 0.137252Z" fill="#655694"/>
<path opacity="0.2" d="M117.51 0.880859L59.166 36.9839L117.51 73.1209V0.880859Z" fill="#7C6EAB"/>
<path d="M59.1655 109.544L0.224353 73.1211L0 73.2241V146.139L0.224353 146.242L59.1655 109.819V109.544Z" fill="#7C6EAB"/>
<path d="M304.172 795.728L304.289 708.348L233.495 752.168L304.172 795.728Z" fill="#009DA8"/>
<path d="M376.322 751.069L376.473 663.67L305.678 707.489L376.322 751.069Z" fill="#655694"/>
<path opacity="0.2" d="M304.85 708.001L305.514 796.542L305.75 796.735L376.345 753.039L376.308 752.723L305.116 707.836L304.85 708.001Z" fill="#7C6EAB"/>
<path opacity="0.2" d="M67.3423 563.679L-1.86706 606.517L-1.88458 606.807L67.3329 649.62L67.5611 649.479L67.5855 563.808L67.3423 563.679Z" fill="#655694"/>
<path d="M67.473 563.598L-1.95502 520.636L-1.99708 606.598L67.473 563.598Z" fill="#7C6EAB"/>
<path d="M323.156 118.29L322.978 118.178L322.951 118.417L323.156 118.29Z" fill="#4C3E84"/>
<path d="M320.681 183.09L320.694 183.317L320.885 183.217L320.681 183.09Z" fill="#4C3E84"/>
<path d="M320.47 250.511L320.458 250.722L320.648 250.622L320.47 250.511Z" fill="#4C3E84"/>
<path d="M322.26 324.123L322.451 324.022L322.273 323.911L322.26 324.123Z" fill="#4C3E84"/>
<path d="M375.257 149.824L320.886 183.217L375.034 217.018L375.257 149.824Z" fill="#009DA8" fill-opacity="0.2"/>
<path opacity="0.2" d="M320.929 115.912L266.532 149.289L320.68 183.09L320.929 115.912Z" fill="#655694"/>
<path opacity="0.2" d="M374.796 284.422L320.649 250.622L320.457 250.722L320.234 317.916L320.412 318.027L374.809 284.65L374.796 284.422Z" fill="#655694"/>
<path d="M374.797 284.422L375.046 217.244L320.649 250.622L374.797 284.422Z" fill="#7C6EAB"/>
<path d="M320.886 183.217L375.257 149.824L375.285 149.585L321.111 115.768L320.931 115.912L320.682 183.089L320.886 183.217Z" fill="#7C6EAB"/>
</g>
</g>
<defs>
<clipPath id="clip0_10385_26446">
<rect width="375" height="800" fill="white"/>
</clipPath>
</defs>
</svg>
