<?xml version="1.0" encoding="utf-8"?>
<!-- Generator: Adobe Illustrator 25.2.1, SVG Export Plug-In . SVG Version: 6.00 Build 0)  -->
<svg version="1.1" id="Layer_1" xmlns="http://www.w3.org/2000/svg" xmlns:xlink="http://www.w3.org/1999/xlink" x="0px" y="0px"
	 viewBox="0 0 325.4 103.6" style="enable-background:new 0 0 325.4 103.6;" xml:space="preserve">
<style type="text/css">
	.st0{fill:#383432;}
	.st1{fill:url(#SVGID_1_);}
	.st2{fill:url(#SVGID_2_);}
	.st3{fill:url(#SVGID_3_);}
	.st4{opacity:0.15;fill:#FFFFFF;enable-background:new    ;}
	.st5{fill:none;stroke:#1D1E1B;stroke-width:0.3571;stroke-miterlimit:10;}
</style>
<g id="Layer_2_1_">
	<g id="Layer_1-2">
		<path class="st0" d="M93,71h-0.6c-1.1,0.1-2.1-0.7-2.3-1.8c-0.4,0.6-1.1,1-1.9,1c-1.2,0-2.2-1.3-2.2-2.9c0-1.7,0.9-3,2.3-3H91v3.9
			c0,1.2,0.6,1.9,1.6,1.9H93L93,71z M90.1,67.1v-2.2h-1.5c-1,0-1.6,1-1.6,2.3s0.6,2.3,1.6,2.3C89.5,69.5,90.1,68.7,90.1,67.1z
			 M88.8,63.4h-0.9v-1.1h0.9V63.4z M90.4,63.4h-0.9v-1.1h0.9V63.4z"/>
		<path class="st0" d="M97,71h-4.2v-0.8h0.8c0.4,0.1,0.8-0.1,1-0.5c0.1-0.4,0.2-0.8,0.2-1.2v-3h0.9v3.4c0,0.4-0.1,0.9-0.2,1.3H97V71
			z M94,72.9h-0.9v-1H94V72.9z M95.6,72.9h-0.9v-1h0.9V72.9z"/>
		<path class="st0" d="M104.6,71h-1.9c-0.4,0.7-1.2,1.1-2,1.1c-0.8,0-1.6-0.4-2.1-1.1h-1.8v-0.9h1.4c-0.1-0.3-0.1-0.6-0.1-0.8
			c0-0.7,0.2-1.4,0.7-2c0.5-0.5,1.2-0.8,1.9-0.8c0.7,0,1.4,0.3,1.9,0.8c0.4,0.6,0.7,1.3,0.6,2c0,0.3,0,0.6-0.1,0.9h1.5L104.6,71z
			 M102.2,69.2c0-0.5-0.1-0.9-0.3-1.3c-0.2-0.4-0.7-0.6-1.2-0.6c-0.5,0-1,0.2-1.3,0.6c-0.3,0.4-0.4,0.9-0.3,1.4
			c0,0.5,0.1,0.9,0.3,1.3c0.3,0.4,0.7,0.6,1.2,0.6C101.7,71.3,102.2,70.6,102.2,69.2L102.2,69.2z"/>
		<path class="st0" d="M108.5,71h-4.2v-0.8h0.8c0.4,0.1,0.8-0.1,1-0.5c0.1-0.4,0.2-0.8,0.2-1.2v-3h0.9v3.4c0,0.4-0.1,0.9-0.2,1.3
			h1.6V71z M105.6,72.9h-0.9v-1h0.9V72.9z M107.2,72.9h-0.9v-1h0.9V72.9z"/>
		<path class="st0" d="M112.5,71h-4.2v-0.8h0.8c0.4,0.1,0.8-0.1,1-0.5c0.1-0.4,0.2-0.8,0.2-1.2v-5.4h0.9v5.7c0,0.4-0.1,0.9-0.2,1.3
			h1.6V71z"/>
		<path class="st0" d="M121.1,71h-2.4c-0.7,0-1.4-0.3-1.8-1c-0.8,0.6-1.7,1-2.7,1h-1.9v-0.9h1.9c0.4,0,0.8,0,1.1-0.2
			c0.4-0.2,0.8-0.4,1.1-0.6c-0.6-1-1.5-1.7-2.6-2.1v-1c0.9-0.6,2-0.9,3-1c1.2,0,2.3,0.4,3.2,1.1c-0.2,0.5-0.5,0.9-0.8,1.3
			c-0.4,0.6-1,1.2-1.6,1.7c0.2,0.3,0.5,0.5,0.9,0.6c0.3,0,0.7,0.1,1,0.1h1.6L121.1,71z M119,66.7c-0.5-0.3-0.8-0.4-0.9-0.4
			c-0.4-0.2-0.8-0.2-1.2-0.2c-0.8,0-1.6,0.3-2.3,0.7c0.5,0.2,1,0.5,1.4,0.8c0.4,0.4,0.8,0.8,1.1,1.3C117.9,68.3,118.5,67.6,119,66.7
			L119,66.7z"/>
		<path class="st0" d="M125.1,71h-4.2v-0.8h0.8c0.4,0.1,0.8-0.1,1-0.5c0.1-0.4,0.2-0.8,0.2-1.2v-3h0.9v3.4c0,0.4-0.1,0.9-0.2,1.3
			h1.6V71z M122.1,64.6h-0.9v-1h0.9V64.6z M123.7,64.6h-0.9v-1h0.9V64.6z"/>
		<path class="st0" d="M127.8,63.1v5.7c0,1.4-0.6,2.1-1.8,2.1h-1.1v-0.8h0.8c0.4,0.1,0.8-0.1,1-0.5c0.2-0.4,0.2-0.8,0.2-1.2v-5.4
			H127.8z"/>
		<path class="st0" d="M130.2,71h-0.9v-7.9h0.9V71z"/>
		<path class="st0" d="M140.4,71h-0.6c-1.1,0.1-2.1-0.7-2.3-1.8c-0.4,0.6-1.1,1-1.9,1c-1.2,0-2.2-1.3-2.2-2.9c0-1.7,0.9-3,2.3-3h2.6
			v3.9c0,1.2,0.6,1.9,1.6,1.9h0.5L140.4,71z M137.5,67.1v-2.2h-1.6c-1,0-1.6,1-1.6,2.3s0.6,2.3,1.6,2.3
			C136.9,69.5,137.5,68.7,137.5,67.1z M136.2,63.4h-0.9v-1.1h0.9V63.4z M137.8,63.4h-0.9v-1.1h0.9V63.4z"/>
		<path class="st0" d="M151.7,71h-11.6v-0.9h1.1c0.9,0,1.3-0.6,1.3-1.9v-2.2h0.9v2c0,0.1,0,0.2,0,0.2c0.9-1.8,2.4-2.9,3.8-2.9
			c2,0,2.9,1.4,2.9,4.1v0.6h1.6V71z M149.2,70.2c0-0.3,0-0.5,0-0.8c0-1.9-0.8-3.2-2.1-3.2c-1.6,0-3.4,1.9-4,3.9H149.2z"/>
		<path class="st0" d="M155.7,71h-4.2v-0.8h0.8c0.4,0.1,0.8-0.1,1-0.5c0.1-0.4,0.2-0.8,0.2-1.2v-3h0.9v3.4c0,0.4-0.1,0.9-0.2,1.3
			h1.6V71z M154.4,64.6h-0.9v-1h0.9V64.6z"/>
		<path class="st0" d="M163.3,71h-1.9c-0.8,1.1-2.4,1.4-3.6,0.6c-0.2-0.2-0.4-0.4-0.6-0.6h-1.8v-0.9h1.4c-0.1-0.3-0.1-0.6-0.1-0.8
			c0-0.7,0.2-1.4,0.7-2c0.5-0.5,1.2-0.8,1.9-0.8c0.7,0,1.4,0.3,1.9,0.8c0.4,0.6,0.7,1.3,0.6,2c0,0.3,0,0.6-0.1,0.9h1.5V71z
			 M160.9,69.2c0-0.5-0.1-0.9-0.3-1.3c-0.2-0.4-0.7-0.6-1.2-0.6c-0.5,0-1,0.2-1.3,0.6c-0.3,0.4-0.4,0.9-0.3,1.4
			c0,0.5,0.1,0.9,0.3,1.3c0.3,0.4,0.7,0.6,1.2,0.6C160.4,71.3,160.9,70.6,160.9,69.2z"/>
		<path class="st0" d="M165.9,63.1v5.7c0,1.4-0.6,2.1-1.8,2.1h-1.1v-0.8h0.8c0.4,0.1,0.8-0.1,1-0.5c0.1-0.4,0.2-0.8,0.2-1.2v-5.4
			H165.9z"/>
		<path class="st0" d="M168.4,71h-0.9v-7.9h0.9V71z"/>
		
			<linearGradient id="SVGID_1_" gradientUnits="userSpaceOnUse" x1="221.2743" y1="51.0169" x2="212.975" y2="43.289" gradientTransform="matrix(1 0 0 -1 0 106)">
			<stop  offset="0" style="stop-color:#961E81"/>
			<stop  offset="1" style="stop-color:#D20D52"/>
		</linearGradient>
		<polygon class="st1" points="200.8,39 209.6,41.4 213.8,60.6 239.4,72.6 239.6,72.9 211.7,65.6 		"/>
		
			<linearGradient id="SVGID_2_" gradientUnits="userSpaceOnUse" x1="190.9573" y1="40.5495" x2="239.2387" y2="40.5495" gradientTransform="matrix(1 0 0 -1 0 106)">
			<stop  offset="0" style="stop-color:#F9B233"/>
			<stop  offset="0.61" style="stop-color:#E94E1B"/>
			<stop  offset="1" style="stop-color:#D20D52"/>
		</linearGradient>
		<polygon class="st2" points="191,55.3 200,54.5 210.7,71.1 239,73.2 239.2,73.4 210.5,76.4 		"/>
		
			<linearGradient id="SVGID_3_" gradientUnits="userSpaceOnUse" x1="237.2046" y1="68.0931" x2="219.0776" y2="44.819" gradientTransform="matrix(1 0 0 -1 0 106)">
			<stop  offset="0" style="stop-color:#32BEF0"/>
			<stop  offset="5.000000e-02" style="stop-color:#41C2F1"/>
			<stop  offset="0.15" style="stop-color:#68CBF4"/>
			<stop  offset="0.24" style="stop-color:#96D6F7"/>
			<stop  offset="0.28" style="stop-color:#87CFF4"/>
			<stop  offset="0.36" style="stop-color:#60BDEB"/>
			<stop  offset="0.43" style="stop-color:#36A9E1"/>
			<stop  offset="1" style="stop-color:#82368C"/>
		</linearGradient>
		<polygon class="st3" points="215.6,27.1 239.2,43.9 240.2,72.6 216.6,56 		"/>
		<path class="st4" d="M239.2,43.8l-23.4-16.6h-0.2l0,0c0.1,0.2,8.5,9.4,12.9,25.6c0,0,4.9,12.9,11.4,19.5l0.2,0.2L239.2,43.8z"/>
		<line class="st5" x1="180.9" y1="33.6" x2="180.9" y2="74.4"/>
		<path class="st0" d="M102.3,50.1H102c-1.8,0.1-3.3-1.1-3.8-2.8c0,3.4-3,6.1-6.4,6.1c-3.7,0-6.6-3.2-6.6-7.2v-2h1.4V46
			c0,3.6,2,6.1,5.2,6.1c2.7,0,5.1-2.3,5.1-4.7c0-1.8-1-2.8-2.6-2.8v-1.3l0,0c0.4,0,0.7-0.1,1.1,0c1.2,0,2.9,1.3,3.6,2.9
			c0.7,1.9,1.4,2.6,2.9,2.6h0.4L102.3,50.1z M91.3,56.7h-1.4V55h1.4V56.7z M94,56.7h-1.4V55H94V56.7z"/>
		<path class="st0" d="M108.9,50.1h-7v-1.4h1.3c0.9,0,1.4-0.3,1.7-0.8c0.3-0.6,0.4-1.3,0.3-2v-5h1.4v5.6c0,0.7-0.1,1.5-0.4,2.1h2.6
			V50.1z M104,39.5h-1.4v-1.7h1.4V39.5z M106.6,39.5h-1.4v-1.7h1.4V39.5z"/>
		<path class="st0" d="M115.5,50.1h-7v-1.4h1.3c0.9,0,1.4-0.3,1.7-0.8c0.2-0.6,0.3-1.3,0.3-2v-5h1.4v5.6c0,0.7-0.1,1.5-0.4,2.1h2.6
			L115.5,50.1z M110.7,53.2h-1.4v-1.7h1.4V53.2z M113.3,53.2h-1.4v-1.7h1.4V53.2z"/>
		<path class="st0" d="M128.1,50.1H125c-0.7,1.1-2,1.8-3.4,1.7c-1.4,0.1-2.7-0.6-3.5-1.8h-3v-1.4h2.4c-0.1-0.5-0.2-0.9-0.2-1.4
			c0-1.2,0.4-2.4,1.1-3.3c0.8-0.9,2-1.4,3.1-1.3c1.2-0.1,2.3,0.4,3.1,1.3c0.7,0.9,1.1,2.1,1.1,3.3c0,0.5-0.1,1-0.2,1.4h2.5
			L128.1,50.1z M124.2,47.2c0-0.8-0.2-1.5-0.5-2.2c-0.4-0.7-1.1-1-1.9-1c-0.8,0-1.6,0.4-2.1,1.1c-0.4,0.7-0.6,1.5-0.6,2.3
			c0,0.8,0.2,1.6,0.6,2.2c0.4,0.7,1.2,1,2,1C123.3,50.6,124.2,49.5,124.2,47.2z"/>
		<path class="st0" d="M132.6,40.9v5.6c0,2.4-1,3.6-3,3.6h-1.8v-1.4h1.3c0.9,0,1.4-0.3,1.7-0.8c0.2-0.6,0.3-1.3,0.3-1.9v-5H132.6z
			 M129.9,53.2h-1.4v-1.7h1.4V53.2z M132.5,53.2h-1.4v-1.7h1.4V53.2z"/>
		<path class="st0" d="M144,50.1h-9v-1.4h7.5c0.1-1.5-0.3-3-1-4.4c-0.8-1.3-2.2-2.1-3.7-2.1h-0.5v-1.3c2.9,0,4.8,1.1,5.8,3.4
			C143.7,45.7,144,47.6,144,50.1z"/>
		<path class="st0" d="M151.2,50.1h-1.6c-0.7,0-1.4-0.3-1.8-0.8c-0.6-0.7-0.9-1.5-0.9-2.4V37h1.5v9c-0.1,0.7,0.1,1.4,0.4,2
			c0.3,0.4,0.7,0.6,1.2,0.6c0.1,0,0.3,0,1.3,0V50.1z"/>
		<path class="st0" d="M164.3,48.1v2h-14v-1.4h12.3c0-0.2,0-0.5,0-0.7c0.1-1.3-0.3-2.6-1.1-3.7c-0.9-1.1-2.2-1.6-3.9-1.6h-4.2
			c0.7-1.3,1.8-3.2,3.1-5.5h1.7l-2.4,4.2h1.8c2,0,3.7,0.6,4.9,1.9C163.7,44.4,164.3,46,164.3,48.1z"/>
		<path class="st0" d="M169.7,34.1l-0.8,0.1c-0.1-0.5-0.3-0.7-0.7-0.7c-0.5,0-0.8,0.4-0.8,1.1c0,0.3,0.1,0.5,0.2,0.7h2.2v0.8h-3.9
			v-0.8h0.8c-0.1-0.2-0.1-0.5-0.1-0.7c0-1,0.5-1.8,1.7-1.8C168.9,32.8,169.6,33.3,169.7,34.1z M168.4,50.1H167V37h1.4V50.1z"/>
	</g>
</g>
</svg>
